<?xml version="1.0" encoding="UTF-8" standalone="no"?><!DOCTYPE svg PUBLIC "-//W3C//DTD SVG 1.1//EN" "http://www.w3.org/Graphics/SVG/1.1/DTD/svg11.dtd"><svg width="100%" height="100%" viewBox="0 0 40 40" version="1.1" xmlns="http://www.w3.org/2000/svg" xmlns:xlink="http://www.w3.org/1999/xlink" xml:space="preserve" xmlns:serif="http://www.serif.com/" style="fill-rule:evenodd;clip-rule:evenodd;stroke-linejoin:round;stroke-miterlimit:2;"><g><path d="M4.662,9.509l4.815,5.673c-0.635,1.427 -0.988,3.007 -0.988,4.668c0,1.728 0.381,3.367 1.064,4.838l-7.017,1.277c-0.671,-1.914 -1.036,-3.972 -1.036,-6.115c0,-3.829 1.166,-7.388 3.162,-10.341Z" style="fill:#d000d0;"/><path d="M4.69,9.041l0.053,0.006l0.053,0.012l0.051,0.019l0.048,0.024l0.046,0.03l0.041,0.034l0.038,0.039l4.814,5.674l0.031,0.041l0.027,0.045l0.022,0.048l0.016,0.05l0.01,0.051l0.005,0.052l-0.001,0.052l-0.007,0.052l-0.013,0.051l-0.018,0.049l-0.057,0.131l-0.055,0.13l-0.053,0.13l-0.052,0.131l-0.049,0.132l-0.049,0.133l-0.046,0.134l-0.045,0.134l-0.043,0.135l-0.042,0.136l-0.039,0.137l-0.038,0.137l-0.037,0.138l-0.034,0.139l-0.033,0.139l-0.031,0.141l-0.029,0.14l-0.028,0.142l-0.025,0.142l-0.024,0.143l-0.022,0.143l-0.02,0.144l-0.019,0.144l-0.016,0.145l-0.014,0.146l-0.013,0.146l-0.011,0.147l-0.009,0.147l-0.006,0.148l-0.005,0.148l-0.003,0.149l-0.001,0.149l0.001,0.156l0.003,0.154l0.005,0.155l0.008,0.153l0.009,0.153l0.012,0.153l0.013,0.151l0.016,0.152l0.018,0.15l0.02,0.15l0.021,0.15l0.024,0.148l0.026,0.148l0.027,0.148l0.03,0.146l0.031,0.146l0.034,0.145l0.035,0.145l0.037,0.144l0.04,0.143l0.041,0.142l0.042,0.141l0.045,0.141l0.047,0.139l0.048,0.139l0.05,0.139l0.052,0.137l0.053,0.136l0.056,0.136l0.057,0.134l0.059,0.134l0.062,0.135l0.019,0.05l0.014,0.052l0.007,0.052l0.002,0.053l-0.005,0.054l-0.01,0.052l-0.016,0.05l-0.022,0.049l-0.028,0.046l-0.032,0.042l-0.037,0.038l-0.041,0.034l-0.044,0.03l-0.048,0.023l-0.05,0.019l-0.052,0.012l-7.017,1.278l-0.055,0.006l-0.055,0l-0.055,-0.006l-0.054,-0.013l-0.052,-0.019l-0.05,-0.025l-0.046,-0.031l-0.042,-0.036l-0.037,-0.04l-0.033,-0.045l-0.027,-0.049l-0.021,-0.051l-0.063,-0.182l-0.062,-0.185l-0.059,-0.187l-0.058,-0.187l-0.057,-0.187l-0.054,-0.189l-0.052,-0.189l-0.051,-0.191l-0.048,-0.191l-0.047,-0.191l-0.044,-0.193l-0.043,-0.193l-0.041,-0.194l-0.038,-0.195l-0.037,-0.195l-0.035,-0.196l-0.032,-0.197l-0.031,-0.198l-0.029,-0.198l-0.026,-0.198l-0.025,-0.2l-0.022,-0.2l-0.02,-0.2l-0.019,-0.202l-0.016,-0.201l-0.014,-0.203l-0.012,-0.203l-0.009,-0.203l-0.008,-0.204l-0.005,-0.205l-0.004,-0.205l-0.001,-0.205l0.001,-0.184l0.003,-0.184l0.004,-0.183l0.006,-0.182l0.008,-0.182l0.009,-0.182l0.012,-0.181l0.013,-0.181l0.014,-0.18l0.016,-0.18l0.018,-0.179l0.02,-0.179l0.021,-0.179l0.023,-0.177l0.025,-0.178l0.026,-0.177l0.028,-0.176l0.029,-0.176l0.031,-0.175l0.033,-0.175l0.034,-0.174l0.036,-0.173l0.038,-0.173l0.039,-0.173l0.04,-0.171l0.042,-0.172l0.044,-0.17l0.045,-0.17l0.047,-0.169l0.048,-0.169l0.05,-0.168l0.051,-0.167l0.053,-0.167l0.054,-0.166l0.056,-0.166l0.057,-0.164l0.059,-0.164l0.06,-0.164l0.061,-0.162l0.063,-0.162l0.065,-0.161l0.066,-0.161l0.067,-0.16l0.069,-0.159l0.07,-0.158l0.072,-0.157l0.072,-0.157l0.075,-0.156l0.075,-0.155l0.078,-0.154l0.078,-0.154l0.08,-0.152l0.081,-0.152l0.082,-0.151l0.084,-0.151l0.085,-0.149l0.086,-0.149l0.088,-0.147l0.089,-0.147l0.09,-0.146l0.092,-0.145l0.093,-0.144l0.094,-0.144l0.094,-0.14l0.032,-0.043l0.038,-0.039l0.041,-0.035l0.046,-0.029l0.048,-0.025l0.051,-0.018l0.053,-0.012l0.054,-0.006l0.054,0Zm-0.121,0.606l-0.091,0.14l-0.091,0.141l-0.089,0.141l-0.088,0.143l-0.087,0.143l-0.086,0.144l-0.084,0.145l-0.083,0.145l-0.081,0.147l-0.081,0.147l-0.079,0.148l-0.078,0.149l-0.076,0.15l-0.075,0.151l-0.074,0.151l-0.072,0.152l-0.072,0.153l-0.069,0.153l-0.069,0.154l-0.067,0.155l-0.065,0.156l-0.065,0.157l-0.063,0.157l-0.061,0.158l-0.06,0.158l-0.059,0.16l-0.057,0.159l-0.056,0.161l-0.054,0.161l-0.053,0.162l-0.051,0.163l-0.05,0.163l-0.049,0.164l-0.047,0.164l-0.046,0.166l-0.044,0.165l-0.042,0.167l-0.041,0.166l-0.04,0.168l-0.038,0.168l-0.036,0.169l-0.035,0.169l-0.034,0.17l-0.031,0.17l-0.031,0.171l-0.028,0.171l-0.028,0.172l-0.025,0.173l-0.024,0.173l-0.022,0.173l-0.021,0.174l-0.019,0.175l-0.018,0.174l-0.016,0.176l-0.014,0.176l-0.013,0.176l-0.011,0.177l-0.009,0.177l-0.007,0.178l-0.006,0.178l-0.005,0.178l-0.002,0.179l-0.001,0.179l0.001,0.201l0.003,0.2l0.006,0.2l0.007,0.199l0.01,0.198l0.011,0.198l0.014,0.198l0.016,0.197l0.017,0.196l0.02,0.196l0.022,0.195l0.024,0.194l0.026,0.194l0.028,0.193l0.03,0.193l0.031,0.191l0.034,0.192l0.036,0.19l0.038,0.19l0.039,0.189l0.042,0.189l0.043,0.187l0.046,0.187l0.047,0.187l0.049,0.185l0.051,0.185l0.053,0.184l0.055,0.183l0.057,0.182l0.058,0.182l0.06,0.181l0.062,0.179l7.017,-1.277l-0.063,-0.138l-0.061,-0.14l-0.06,-0.14l-0.058,-0.141l-0.056,-0.143l-0.054,-0.143l-0.052,-0.144l-0.05,-0.145l-0.049,-0.145l-0.046,-0.147l-0.045,-0.147l-0.043,-0.149l-0.04,-0.149l-0.039,-0.15l-0.037,-0.15l-0.035,-0.152l-0.033,-0.152l-0.031,-0.153l-0.029,-0.153l-0.026,-0.155l-0.025,-0.155l-0.023,-0.155l-0.02,-0.157l-0.019,-0.157l-0.016,-0.157l-0.014,-0.159l-0.012,-0.159l-0.01,-0.159l-0.008,-0.16l-0.006,-0.161l-0.003,-0.161l-0.001,-0.162l0.001,-0.155l0.003,-0.155l0.005,-0.155l0.007,-0.154l0.009,-0.153l0.012,-0.153l0.013,-0.152l0.015,-0.152l0.017,-0.152l0.019,-0.15l0.021,-0.15l0.023,-0.15l0.025,-0.148l0.027,-0.149l0.028,-0.147l0.031,-0.147l0.032,-0.146l0.034,-0.145l0.036,-0.145l0.038,-0.144l0.04,-0.143l0.041,-0.143l0.043,-0.141l0.045,-0.141l0.047,-0.14l0.049,-0.14l0.05,-0.138l0.052,-0.138l0.053,-0.137l0.056,-0.136l0.057,-0.135l0.059,-0.134l-4.815,-5.673l-0.093,0.138Z"/><path d="M10.698,26.629c1.903,2.606 4.875,4.384 8.268,4.687l-2.402,6.715c-5.812,-1.093 -10.668,-4.908 -13.192,-10.068l7.326,-1.334Z" style="fill:#1476e6;"/><path d="M10.77,26.166l0.051,0.011l0.05,0.016l0.047,0.022l0.045,0.027l0.041,0.032l0.038,0.036l0.033,0.04l0.088,0.119l0.088,0.116l0.089,0.114l0.091,0.113l0.092,0.112l0.094,0.111l0.095,0.109l0.096,0.108l0.098,0.107l0.099,0.105l0.101,0.105l0.102,0.102l0.103,0.102l0.105,0.1l0.106,0.099l0.107,0.098l0.108,0.096l0.11,0.094l0.111,0.094l0.112,0.091l0.114,0.091l0.114,0.089l0.116,0.087l0.117,0.086l0.118,0.084l0.119,0.083l0.121,0.082l0.121,0.079l0.123,0.079l0.124,0.076l0.124,0.075l0.126,0.074l0.127,0.072l0.128,0.07l0.129,0.069l0.13,0.067l0.131,0.065l0.132,0.063l0.132,0.062l0.134,0.06l0.135,0.059l0.135,0.056l0.137,0.055l0.137,0.053l0.139,0.052l0.139,0.049l0.14,0.048l0.141,0.046l0.141,0.044l0.143,0.042l0.143,0.04l0.144,0.038l0.145,0.037l0.145,0.034l0.147,0.033l0.147,0.031l0.147,0.029l0.149,0.026l0.149,0.025l0.149,0.023l0.151,0.021l0.151,0.018l0.152,0.017l0.155,0.015l0.053,0.008l0.051,0.014l0.05,0.02l0.046,0.025l0.044,0.031l0.04,0.035l0.036,0.039l0.031,0.043l0.026,0.047l0.02,0.049l0.015,0.051l0.009,0.053l0.003,0.053l-0.003,0.053l-0.009,0.053l-0.015,0.051l-2.403,6.715l-0.019,0.047l-0.025,0.045l-0.03,0.042l-0.034,0.038l-0.037,0.034l-0.042,0.03l-0.044,0.026l-0.047,0.02l-0.049,0.015l-0.05,0.01l-0.051,0.004l-0.051,-0.001l-0.05,-0.007l-0.138,-0.027l-0.139,-0.028l-0.139,-0.028l-0.138,-0.03l-0.138,-0.031l-0.138,-0.032l-0.137,-0.033l-0.137,-0.034l-0.137,-0.034l-0.136,-0.036l-0.136,-0.037l-0.135,-0.038l-0.135,-0.038l-0.134,-0.04l-0.134,-0.041l-0.134,-0.041l-0.133,-0.043l-0.133,-0.044l-0.132,-0.044l-0.132,-0.046l-0.132,-0.046l-0.131,-0.047l-0.13,-0.049l-0.131,-0.049l-0.129,-0.05l-0.129,-0.051l-0.129,-0.052l-0.128,-0.053l-0.128,-0.053l-0.128,-0.055l-0.127,-0.056l-0.126,-0.056l-0.126,-0.058l-0.125,-0.058l-0.125,-0.059l-0.124,-0.06l-0.124,-0.061l-0.124,-0.062l-0.123,-0.062l-0.122,-0.064l-0.122,-0.064l-0.121,-0.065l-0.121,-0.066l-0.12,-0.067l-0.12,-0.068l-0.119,-0.069l-0.119,-0.069l-0.118,-0.07l-0.117,-0.071l-0.117,-0.072l-0.116,-0.073l-0.116,-0.074l-0.116,-0.074l-0.114,-0.075l-0.114,-0.076l-0.114,-0.077l-0.113,-0.077l-0.112,-0.079l-0.112,-0.079l-0.111,-0.08l-0.111,-0.08l-0.11,-0.082l-0.109,-0.082l-0.109,-0.083l-0.108,-0.084l-0.107,-0.085l-0.107,-0.085l-0.106,-0.086l-0.106,-0.087l-0.105,-0.087l-0.104,-0.088l-0.104,-0.089l-0.103,-0.09l-0.102,-0.091l-0.102,-0.091l-0.101,-0.092l-0.1,-0.092l-0.1,-0.094l-0.099,-0.094l-0.099,-0.094l-0.097,-0.096l-0.097,-0.096l-0.097,-0.097l-0.095,-0.097l-0.095,-0.099l-0.094,-0.098l-0.094,-0.1l-0.093,-0.1l-0.092,-0.101l-0.091,-0.102l-0.091,-0.102l-0.09,-0.103l-0.089,-0.103l-0.088,-0.104l-0.088,-0.105l-0.087,-0.106l-0.086,-0.106l-0.086,-0.106l-0.084,-0.108l-0.084,-0.108l-0.084,-0.108l-0.082,-0.109l-0.082,-0.11l-0.081,-0.111l-0.08,-0.111l-0.079,-0.111l-0.079,-0.113l-0.077,-0.112l-0.077,-0.114l-0.077,-0.114l-0.075,-0.114l-0.074,-0.115l-0.074,-0.116l-0.073,-0.116l-0.072,-0.117l-0.072,-0.117l-0.07,-0.118l-0.07,-0.119l-0.068,-0.119l-0.068,-0.119l-0.068,-0.121l-0.066,-0.12l-0.065,-0.121l-0.065,-0.122l-0.064,-0.122l-0.062,-0.123l-0.062,-0.123l-0.061,-0.122l-0.02,-0.047l-0.015,-0.049l-0.009,-0.05l-0.004,-0.051l0.002,-0.051l0.007,-0.05l0.012,-0.05l0.018,-0.048l0.023,-0.045l0.028,-0.043l0.032,-0.039l0.036,-0.036l0.04,-0.032l0.043,-0.027l0.046,-0.022l0.048,-0.017l0.05,-0.012l7.326,-1.334l0.052,-0.006l0.052,-0.001l0.052,0.005Zm-7.398,1.797l0.059,0.121l0.061,0.12l0.061,0.12l0.062,0.119l0.063,0.118l0.064,0.119l0.064,0.117l0.066,0.117l0.066,0.117l0.067,0.116l0.068,0.116l0.069,0.115l0.07,0.114l0.07,0.114l0.071,0.113l0.072,0.113l0.073,0.113l0.073,0.111l0.074,0.111l0.076,0.111l0.075,0.11l0.077,0.109l0.077,0.109l0.078,0.109l0.079,0.107l0.08,0.107l0.08,0.107l0.082,0.106l0.082,0.105l0.082,0.105l0.084,0.104l0.084,0.103l0.085,0.103l0.085,0.102l0.086,0.102l0.087,0.101l0.088,0.1l0.089,0.1l0.089,0.099l0.089,0.099l0.091,0.097l0.091,0.097l0.092,0.097l0.093,0.096l0.093,0.095l0.094,0.094l0.095,0.094l0.095,0.093l0.096,0.092l0.096,0.092l0.098,0.091l0.098,0.091l0.098,0.089l0.099,0.089l0.1,0.088l0.101,0.088l0.101,0.087l0.102,0.086l0.102,0.085l0.103,0.085l0.104,0.084l0.104,0.083l0.105,0.083l0.105,0.081l0.106,0.081l0.107,0.08l0.107,0.08l0.108,0.079l0.108,0.078l0.109,0.077l0.11,0.076l0.11,0.076l0.111,0.075l0.111,0.074l0.112,0.073l0.112,0.073l0.113,0.071l0.114,0.071l0.114,0.07l0.115,0.07l0.115,0.068l0.115,0.068l0.117,0.067l0.116,0.066l0.118,0.065l0.117,0.065l0.119,0.063l0.118,0.063l0.12,0.062l0.12,0.061l0.12,0.06l0.121,0.06l0.121,0.058l0.122,0.058l0.122,0.057l0.123,0.056l0.123,0.055l0.124,0.054l0.124,0.053l0.125,0.053l0.125,0.051l0.125,0.051l0.126,0.05l0.127,0.048l0.127,0.048l0.127,0.047l0.128,0.047l0.128,0.045l0.129,0.044l0.129,0.044l0.129,0.042l0.13,0.042l0.13,0.04l0.131,0.04l0.131,0.038l0.132,0.038l0.132,0.037l0.132,0.036l0.133,0.035l0.133,0.034l0.133,0.033l0.134,0.032l0.134,0.031l0.135,0.03l0.135,0.029l0.135,0.028l0.136,0.027l0.136,0.026l2.402,-6.715l-0.158,-0.016l-0.159,-0.017l-0.157,-0.02l-0.157,-0.021l-0.156,-0.024l-0.155,-0.026l-0.155,-0.028l-0.154,-0.03l-0.153,-0.032l-0.153,-0.034l-0.152,-0.036l-0.151,-0.038l-0.15,-0.04l-0.149,-0.042l-0.149,-0.044l-0.148,-0.046l-0.146,-0.048l-0.146,-0.049l-0.145,-0.052l-0.145,-0.053l-0.143,-0.056l-0.142,-0.057l-0.142,-0.059l-0.14,-0.061l-0.14,-0.063l-0.138,-0.064l-0.138,-0.066l-0.136,-0.068l-0.136,-0.07l-0.134,-0.072l-0.133,-0.073l-0.133,-0.075l-0.131,-0.076l-0.13,-0.079l-0.129,-0.079l-0.128,-0.082l-0.126,-0.083l-0.126,-0.085l-0.124,-0.086l-0.123,-0.088l-0.122,-0.09l-0.121,-0.091l-0.119,-0.093l-0.118,-0.094l-0.117,-0.096l-0.116,-0.097l-0.114,-0.098l-0.113,-0.101l-0.112,-0.101l-0.11,-0.103l-0.109,-0.105l-0.108,-0.105l-0.106,-0.108l-0.105,-0.108l-0.103,-0.11l-0.102,-0.112l-0.101,-0.112l-0.099,-0.114l-0.098,-0.115l-0.096,-0.117l-0.094,-0.118l-0.093,-0.119l-0.092,-0.12l-0.09,-0.122l-7.326,1.334Z"/><path d="M29.411,26.477l4.612,5.435c-3.394,3.941 -8.419,6.438 -14.023,6.438c-0.433,0 -0.863,-0.014 -1.288,-0.044l2.507,-7.008c3.381,-0.357 6.328,-2.18 8.192,-4.821Z" style="fill:#17b414;"/><path d="M29.445,26.009l0.053,0.007l0.051,0.013l0.05,0.019l0.048,0.024l0.044,0.029l0.041,0.034l0.037,0.039l4.612,5.435l0.031,0.04l0.026,0.044l0.021,0.047l0.016,0.048l0.011,0.05l0.005,0.051l0,0.051l-0.006,0.051l-0.011,0.05l-0.017,0.048l-0.022,0.046l-0.026,0.044l-0.032,0.04l-0.08,0.093l-0.083,0.094l-0.083,0.093l-0.084,0.093l-0.084,0.092l-0.085,0.092l-0.085,0.091l-0.086,0.091l-0.087,0.09l-0.087,0.089l-0.088,0.089l-0.088,0.088l-0.089,0.088l-0.09,0.087l-0.09,0.087l-0.091,0.086l-0.091,0.085l-0.092,0.085l-0.092,0.084l-0.093,0.083l-0.093,0.083l-0.094,0.083l-0.095,0.081l-0.095,0.081l-0.096,0.081l-0.096,0.08l-0.096,0.079l-0.098,0.079l-0.097,0.078l-0.099,0.077l-0.098,0.077l-0.1,0.076l-0.1,0.075l-0.1,0.075l-0.101,0.074l-0.101,0.074l-0.102,0.073l-0.102,0.072l-0.103,0.071l-0.103,0.071l-0.104,0.07l-0.105,0.07l-0.104,0.069l-0.106,0.068l-0.105,0.068l-0.107,0.066l-0.106,0.067l-0.108,0.065l-0.107,0.065l-0.108,0.064l-0.109,0.063l-0.109,0.063l-0.109,0.062l-0.11,0.061l-0.111,0.061l-0.11,0.06l-0.112,0.059l-0.111,0.058l-0.112,0.058l-0.113,0.057l-0.113,0.056l-0.113,0.056l-0.114,0.055l-0.114,0.054l-0.115,0.053l-0.115,0.052l-0.116,0.052l-0.116,0.051l-0.116,0.051l-0.117,0.049l-0.117,0.049l-0.117,0.048l-0.118,0.047l-0.118,0.047l-0.119,0.046l-0.119,0.045l-0.119,0.044l-0.12,0.043l-0.12,0.043l-0.121,0.042l-0.121,0.041l-0.121,0.04l-0.122,0.04l-0.122,0.038l-0.122,0.038l-0.123,0.037l-0.123,0.037l-0.123,0.035l-0.124,0.035l-0.124,0.033l-0.124,0.033l-0.125,0.033l-0.125,0.031l-0.125,0.03l-0.126,0.03l-0.126,0.029l-0.126,0.028l-0.127,0.027l-0.127,0.026l-0.127,0.026l-0.128,0.025l-0.127,0.023l-0.129,0.023l-0.128,0.022l-0.129,0.021l-0.129,0.021l-0.129,0.019l-0.13,0.019l-0.129,0.018l-0.131,0.016l-0.13,0.016l-0.131,0.015l-0.131,0.014l-0.131,0.014l-0.131,0.012l-0.132,0.012l-0.132,0.01l-0.132,0.01l-0.133,0.009l-0.132,0.007l-0.133,0.007l-0.133,0.006l-0.134,0.006l-0.133,0.004l-0.134,0.003l-0.134,0.002l-0.135,0.002l-0.134,0l-0.166,0l-0.166,-0.003l-0.166,-0.003l-0.165,-0.005l-0.165,-0.007l-0.164,-0.007l-0.165,-0.01l-0.161,-0.01l-0.051,-0.006l-0.05,-0.012l-0.048,-0.016l-0.046,-0.022l-0.043,-0.027l-0.04,-0.032l-0.037,-0.035l-0.032,-0.039l-0.028,-0.043l-0.024,-0.045l-0.018,-0.048l-0.013,-0.049l-0.007,-0.051l-0.002,-0.051l0.004,-0.051l0.009,-0.05l0.014,-0.049l2.507,-7.008l0.021,-0.048l0.025,-0.046l0.031,-0.042l0.035,-0.039l0.039,-0.035l0.043,-0.03l0.045,-0.025l0.049,-0.02l0.05,-0.014l0.051,-0.009l0.155,-0.018l0.152,-0.019l0.15,-0.021l0.15,-0.023l0.149,-0.025l0.148,-0.027l0.148,-0.029l0.147,-0.031l0.146,-0.034l0.146,-0.034l0.145,-0.037l0.144,-0.039l0.143,-0.041l0.143,-0.042l0.141,-0.045l0.141,-0.046l0.14,-0.048l0.139,-0.05l0.138,-0.052l0.138,-0.053l0.136,-0.055l0.136,-0.057l0.135,-0.059l0.133,-0.061l0.133,-0.062l0.132,-0.064l0.131,-0.066l0.13,-0.067l0.129,-0.069l0.127,-0.07l0.127,-0.073l0.126,-0.074l0.125,-0.075l0.123,-0.077l0.123,-0.079l0.121,-0.08l0.121,-0.082l0.119,-0.083l0.118,-0.085l0.117,-0.086l0.115,-0.088l0.115,-0.089l0.113,-0.091l0.112,-0.092l0.111,-0.094l0.109,-0.095l0.109,-0.097l0.107,-0.098l0.105,-0.099l0.105,-0.1l0.103,-0.102l0.102,-0.104l0.1,-0.104l0.099,-0.106l0.098,-0.108l0.096,-0.108l0.095,-0.11l0.093,-0.111l0.092,-0.112l0.091,-0.114l0.089,-0.114l0.087,-0.116l0.087,-0.117l0.086,-0.121l0.033,-0.041l0.038,-0.038l0.042,-0.032l0.045,-0.028l0.048,-0.023l0.051,-0.017l0.052,-0.011l0.053,-0.005l0.053,0Zm-0.122,0.591l-0.09,0.122l-0.091,0.121l-0.093,0.119l-0.094,0.119l-0.096,0.117l-0.097,0.115l-0.099,0.115l-0.101,0.113l-0.101,0.112l-0.104,0.11l-0.104,0.109l-0.106,0.108l-0.108,0.106l-0.109,0.105l-0.11,0.103l-0.111,0.102l-0.113,0.101l-0.114,0.099l-0.116,0.098l-0.117,0.096l-0.118,0.094l-0.119,0.093l-0.12,0.092l-0.122,0.09l-0.123,0.088l-0.124,0.087l-0.126,0.085l-0.126,0.084l-0.128,0.082l-0.129,0.08l-0.13,0.079l-0.131,0.077l-0.132,0.075l-0.133,0.074l-0.135,0.072l-0.135,0.07l-0.137,0.069l-0.137,0.066l-0.139,0.065l-0.139,0.063l-0.14,0.061l-0.142,0.06l-0.142,0.058l-0.143,0.055l-0.145,0.054l-0.145,0.052l-0.146,0.05l-0.147,0.049l-0.147,0.046l-0.149,0.044l-0.149,0.043l-0.15,0.04l-0.151,0.039l-0.152,0.036l-0.153,0.034l-0.153,0.033l-0.154,0.03l-0.155,0.029l-0.155,0.026l-0.157,0.024l-0.156,0.022l-0.158,0.02l-0.158,0.018l-2.507,7.008l0.16,0.011l0.16,0.009l0.16,0.007l0.161,0.006l0.161,0.005l0.162,0.004l0.162,0.002l0.162,0l0.131,0l0.131,-0.001l0.131,-0.003l0.131,-0.003l0.13,-0.004l0.13,-0.005l0.13,-0.006l0.13,-0.007l0.129,-0.007l0.129,-0.009l0.129,-0.009l0.129,-0.01l0.128,-0.012l0.129,-0.012l0.128,-0.013l0.127,-0.014l0.128,-0.014l0.127,-0.016l0.127,-0.016l0.127,-0.017l0.126,-0.019l0.126,-0.018l0.126,-0.02l0.125,-0.021l0.126,-0.021l0.125,-0.023l0.124,-0.023l0.125,-0.024l0.124,-0.025l0.123,-0.025l0.124,-0.027l0.123,-0.027l0.123,-0.028l0.123,-0.029l0.122,-0.03l0.122,-0.031l0.121,-0.031l0.122,-0.032l0.121,-0.033l0.12,-0.034l0.12,-0.035l0.12,-0.035l0.12,-0.036l0.119,-0.037l0.119,-0.038l0.119,-0.038l0.118,-0.039l0.118,-0.04l0.117,-0.041l0.118,-0.042l0.116,-0.042l0.117,-0.043l0.116,-0.044l0.116,-0.045l0.115,-0.045l0.115,-0.046l0.114,-0.047l0.115,-0.048l0.113,-0.048l0.114,-0.049l0.113,-0.05l0.112,-0.051l0.113,-0.051l0.111,-0.052l0.112,-0.052l0.111,-0.054l0.11,-0.054l0.111,-0.055l0.109,-0.056l0.11,-0.056l0.109,-0.057l0.108,-0.057l0.108,-0.059l0.108,-0.059l0.107,-0.06l0.107,-0.06l0.106,-0.061l0.106,-0.062l0.105,-0.063l0.105,-0.063l0.105,-0.064l0.104,-0.064l0.104,-0.065l0.103,-0.066l0.102,-0.067l0.103,-0.067l0.101,-0.068l0.102,-0.068l0.1,-0.069l0.101,-0.07l0.1,-0.071l0.099,-0.071l0.099,-0.071l0.098,-0.073l0.098,-0.073l0.097,-0.073l0.097,-0.074l0.097,-0.075l0.096,-0.076l0.095,-0.076l0.095,-0.077l0.094,-0.077l0.094,-0.078l0.093,-0.078l0.093,-0.079l0.092,-0.08l0.092,-0.08l0.091,-0.081l0.091,-0.082l0.09,-0.082l0.089,-0.083l0.089,-0.083l0.089,-0.084l0.087,-0.084l0.088,-0.085l0.087,-0.085l0.086,-0.087l0.085,-0.086l0.086,-0.087l0.084,-0.088l0.084,-0.089l0.083,-0.088l0.083,-0.09l0.082,-0.09l0.082,-0.09l0.081,-0.091l0.08,-0.092l0.08,-0.092l-4.612,-5.435l-0.088,0.123Z"/><path d="M30.523,24.519c0.635,-1.427 0.988,-3.007 0.988,-4.669c0,-1.727 -0.381,-3.366 -1.064,-4.837l7.017,-1.277c0.671,1.914 1.036,3.972 1.036,6.114c0,3.83 -1.166,7.389 -3.162,10.342l-4.815,-5.673Z" style="fill:#f7f10e;"/><path d="M37.545,13.274l0.054,0.013l0.052,0.019l0.05,0.025l0.046,0.031l0.042,0.036l0.037,0.04l0.033,0.045l0.027,0.049l0.021,0.051l0.063,0.182l0.062,0.185l0.059,0.186l0.058,0.188l0.057,0.187l0.054,0.189l0.052,0.189l0.051,0.191l0.048,0.191l0.047,0.191l0.044,0.193l0.043,0.193l0.041,0.194l0.038,0.195l0.037,0.195l0.035,0.196l0.032,0.197l0.031,0.198l0.029,0.198l0.026,0.198l0.025,0.2l0.022,0.2l0.02,0.2l0.019,0.202l0.016,0.201l0.014,0.203l0.012,0.203l0.009,0.203l0.008,0.204l0.005,0.205l0.004,0.205l0.001,0.205l-0.001,0.184l-0.003,0.184l-0.004,0.183l-0.006,0.182l-0.008,0.182l-0.009,0.182l-0.012,0.181l-0.013,0.181l-0.014,0.18l-0.016,0.18l-0.018,0.179l-0.02,0.179l-0.021,0.179l-0.023,0.177l-0.025,0.178l-0.026,0.177l-0.028,0.176l-0.029,0.176l-0.031,0.175l-0.033,0.175l-0.034,0.174l-0.036,0.173l-0.038,0.173l-0.039,0.173l-0.04,0.171l-0.042,0.171l-0.044,0.171l-0.045,0.17l-0.047,0.169l-0.048,0.169l-0.05,0.168l-0.051,0.167l-0.053,0.167l-0.054,0.166l-0.056,0.166l-0.057,0.164l-0.059,0.164l-0.06,0.164l-0.061,0.162l-0.063,0.162l-0.065,0.161l-0.066,0.161l-0.067,0.16l-0.069,0.159l-0.07,0.158l-0.072,0.157l-0.072,0.157l-0.075,0.156l-0.075,0.155l-0.078,0.154l-0.078,0.154l-0.08,0.152l-0.081,0.152l-0.082,0.151l-0.084,0.151l-0.085,0.149l-0.086,0.149l-0.088,0.147l-0.089,0.147l-0.09,0.146l-0.092,0.145l-0.093,0.144l-0.094,0.143l-0.094,0.141l-0.032,0.043l-0.038,0.039l-0.041,0.035l-0.046,0.029l-0.048,0.024l-0.051,0.019l-0.053,0.012l-0.054,0.006l-0.054,0l-0.053,-0.006l-0.053,-0.012l-0.051,-0.019l-0.048,-0.024l-0.046,-0.03l-0.041,-0.034l-0.038,-0.039l-4.814,-5.674l-0.031,-0.041l-0.027,-0.045l-0.022,-0.048l-0.016,-0.05l-0.01,-0.051l-0.005,-0.052l0.001,-0.052l0.007,-0.052l0.013,-0.051l0.018,-0.049l0.057,-0.131l0.055,-0.13l0.053,-0.13l0.052,-0.131l0.049,-0.132l0.049,-0.133l0.046,-0.134l0.045,-0.134l0.043,-0.135l0.042,-0.136l0.039,-0.137l0.038,-0.137l0.037,-0.138l0.034,-0.139l0.033,-0.139l0.031,-0.141l0.029,-0.14l0.028,-0.142l0.025,-0.142l0.024,-0.143l0.022,-0.143l0.02,-0.144l0.019,-0.144l0.016,-0.145l0.014,-0.146l0.013,-0.146l0.011,-0.147l0.009,-0.147l0.006,-0.148l0.005,-0.148l0.003,-0.149l0.001,-0.149l-0.001,-0.156l-0.003,-0.154l-0.005,-0.155l-0.008,-0.153l-0.009,-0.153l-0.012,-0.153l-0.013,-0.151l-0.016,-0.152l-0.018,-0.15l-0.02,-0.15l-0.021,-0.15l-0.024,-0.148l-0.026,-0.148l-0.027,-0.148l-0.03,-0.146l-0.031,-0.146l-0.034,-0.145l-0.035,-0.145l-0.037,-0.144l-0.04,-0.143l-0.041,-0.142l-0.042,-0.141l-0.045,-0.141l-0.047,-0.14l-0.048,-0.138l-0.05,-0.139l-0.052,-0.137l-0.053,-0.136l-0.056,-0.136l-0.057,-0.134l-0.059,-0.134l-0.062,-0.135l-0.019,-0.05l-0.014,-0.052l-0.007,-0.052l-0.002,-0.053l0.005,-0.054l0.01,-0.052l0.016,-0.05l0.022,-0.049l0.028,-0.046l0.032,-0.042l0.037,-0.038l0.041,-0.034l0.044,-0.03l0.048,-0.023l0.05,-0.019l0.052,-0.012l7.017,-1.278l0.055,-0.006l0.055,0l0.055,0.006Zm-7.098,1.739l0.063,0.138l0.061,0.14l0.06,0.14l0.058,0.141l0.056,0.143l0.054,0.143l0.052,0.144l0.05,0.145l0.049,0.145l0.046,0.147l0.045,0.147l0.043,0.149l0.04,0.149l0.039,0.15l0.037,0.15l0.035,0.152l0.033,0.152l0.031,0.153l0.029,0.153l0.026,0.155l0.025,0.155l0.023,0.155l0.02,0.157l0.019,0.157l0.016,0.157l0.014,0.159l0.012,0.159l0.01,0.159l0.008,0.16l0.006,0.161l0.003,0.161l0.001,0.161l-0.001,0.156l-0.003,0.155l-0.005,0.155l-0.007,0.154l-0.009,0.153l-0.012,0.153l-0.013,0.152l-0.015,0.152l-0.017,0.151l-0.019,0.151l-0.021,0.15l-0.023,0.15l-0.025,0.148l-0.027,0.148l-0.028,0.148l-0.031,0.147l-0.032,0.146l-0.034,0.145l-0.036,0.145l-0.038,0.144l-0.04,0.143l-0.041,0.143l-0.043,0.141l-0.045,0.141l-0.047,0.14l-0.049,0.14l-0.05,0.138l-0.052,0.138l-0.053,0.137l-0.056,0.136l-0.057,0.135l-0.059,0.134l4.815,5.673l0.093,-0.138l0.091,-0.14l0.091,-0.141l0.089,-0.141l0.088,-0.143l0.087,-0.143l0.086,-0.144l0.084,-0.145l0.083,-0.145l0.081,-0.147l0.081,-0.147l0.079,-0.148l0.078,-0.149l0.076,-0.15l0.075,-0.151l0.074,-0.151l0.072,-0.152l0.072,-0.153l0.069,-0.153l0.069,-0.154l0.067,-0.156l0.065,-0.155l0.065,-0.157l0.063,-0.157l0.061,-0.158l0.06,-0.158l0.059,-0.16l0.057,-0.16l0.056,-0.16l0.054,-0.161l0.053,-0.162l0.051,-0.163l0.05,-0.163l0.049,-0.164l0.047,-0.164l0.046,-0.166l0.044,-0.165l0.042,-0.167l0.041,-0.167l0.04,-0.167l0.038,-0.168l0.036,-0.169l0.035,-0.169l0.034,-0.17l0.031,-0.17l0.031,-0.171l0.028,-0.171l0.028,-0.172l0.025,-0.173l0.024,-0.173l0.022,-0.173l0.021,-0.174l0.019,-0.175l0.018,-0.175l0.016,-0.175l0.014,-0.176l0.013,-0.176l0.011,-0.177l0.009,-0.177l0.007,-0.178l0.006,-0.178l0.005,-0.178l0.002,-0.179l0.001,-0.18l-0.001,-0.2l-0.003,-0.2l-0.006,-0.2l-0.007,-0.199l-0.01,-0.198l-0.011,-0.198l-0.014,-0.198l-0.016,-0.197l-0.017,-0.196l-0.02,-0.196l-0.022,-0.195l-0.024,-0.194l-0.026,-0.194l-0.028,-0.193l-0.03,-0.193l-0.031,-0.191l-0.034,-0.192l-0.036,-0.19l-0.038,-0.19l-0.039,-0.189l-0.042,-0.189l-0.043,-0.187l-0.046,-0.187l-0.047,-0.187l-0.049,-0.185l-0.051,-0.185l-0.053,-0.184l-0.055,-0.183l-0.057,-0.182l-0.058,-0.182l-0.06,-0.181l-0.062,-0.179l-7.017,1.277Z"/><path d="M29.302,13.072c-1.903,-2.606 -4.875,-4.384 -8.268,-4.687l2.402,-6.715c5.812,1.093 10.668,4.908 13.192,10.068l-7.326,1.334Z" style="fill:#ff7004;"/><path d="M23.474,1.202l0.05,0.007l0.138,0.027l0.139,0.027l0.139,0.029l0.138,0.03l0.138,0.031l0.138,0.032l0.137,0.033l0.137,0.033l0.137,0.035l0.136,0.036l0.136,0.037l0.135,0.038l0.135,0.038l0.134,0.04l0.134,0.041l0.134,0.041l0.133,0.043l0.133,0.044l0.132,0.044l0.132,0.046l0.132,0.046l0.131,0.047l0.13,0.048l0.131,0.05l0.129,0.05l0.129,0.051l0.129,0.052l0.128,0.053l0.128,0.053l0.128,0.055l0.127,0.056l0.126,0.056l0.126,0.057l0.125,0.059l0.125,0.059l0.124,0.06l0.124,0.061l0.124,0.062l0.123,0.062l0.122,0.064l0.122,0.064l0.121,0.065l0.121,0.066l0.12,0.067l0.12,0.068l0.119,0.069l0.119,0.069l0.118,0.07l0.117,0.071l0.117,0.072l0.116,0.073l0.116,0.073l0.116,0.075l0.114,0.075l0.114,0.076l0.114,0.077l0.113,0.077l0.112,0.079l0.112,0.079l0.111,0.08l0.111,0.08l0.11,0.082l0.109,0.082l0.109,0.083l0.108,0.084l0.107,0.084l0.107,0.086l0.106,0.086l0.106,0.087l0.105,0.087l0.104,0.088l0.104,0.089l0.103,0.09l0.102,0.091l0.102,0.091l0.101,0.092l0.1,0.092l0.1,0.094l0.099,0.094l0.099,0.094l0.097,0.096l0.097,0.096l0.097,0.097l0.095,0.097l0.095,0.099l0.094,0.098l0.094,0.1l0.093,0.1l0.092,0.101l0.091,0.102l0.091,0.102l0.09,0.103l0.089,0.103l0.088,0.104l0.088,0.105l0.087,0.106l0.086,0.106l0.086,0.106l0.084,0.108l0.084,0.108l0.084,0.108l0.082,0.109l0.082,0.11l0.081,0.111l0.08,0.111l0.079,0.111l0.079,0.112l0.077,0.113l0.077,0.114l0.077,0.114l0.075,0.114l0.074,0.115l0.074,0.116l0.073,0.116l0.072,0.117l0.072,0.117l0.07,0.118l0.07,0.119l0.068,0.119l0.068,0.119l0.068,0.12l0.066,0.121l0.065,0.121l0.065,0.122l0.064,0.122l0.062,0.123l0.062,0.123l0.061,0.122l0.02,0.047l0.015,0.049l0.009,0.05l0.004,0.051l-0.002,0.051l-0.007,0.05l-0.012,0.05l-0.018,0.048l-0.023,0.045l-0.028,0.043l-0.032,0.039l-0.036,0.036l-0.04,0.032l-0.043,0.027l-0.046,0.022l-0.048,0.017l-0.05,0.012l-7.326,1.334l-0.052,0.006l-0.052,0.001l-0.052,-0.005l-0.051,-0.011l-0.05,-0.016l-0.047,-0.022l-0.045,-0.027l-0.041,-0.032l-0.038,-0.036l-0.033,-0.04l-0.088,-0.119l-0.088,-0.116l-0.089,-0.114l-0.091,-0.113l-0.092,-0.112l-0.094,-0.111l-0.095,-0.109l-0.096,-0.108l-0.098,-0.107l-0.099,-0.105l-0.101,-0.105l-0.102,-0.103l-0.103,-0.101l-0.105,-0.1l-0.106,-0.099l-0.107,-0.098l-0.108,-0.096l-0.11,-0.094l-0.111,-0.094l-0.112,-0.091l-0.114,-0.091l-0.114,-0.089l-0.116,-0.087l-0.117,-0.086l-0.118,-0.084l-0.119,-0.083l-0.121,-0.082l-0.121,-0.08l-0.123,-0.078l-0.124,-0.076l-0.124,-0.076l-0.126,-0.073l-0.127,-0.072l-0.128,-0.07l-0.129,-0.069l-0.13,-0.067l-0.131,-0.065l-0.132,-0.063l-0.132,-0.062l-0.134,-0.06l-0.135,-0.059l-0.135,-0.056l-0.137,-0.055l-0.137,-0.053l-0.139,-0.052l-0.139,-0.049l-0.14,-0.048l-0.141,-0.046l-0.141,-0.044l-0.143,-0.042l-0.143,-0.04l-0.144,-0.038l-0.145,-0.037l-0.145,-0.035l-0.147,-0.032l-0.147,-0.031l-0.147,-0.029l-0.149,-0.026l-0.149,-0.025l-0.149,-0.023l-0.151,-0.021l-0.151,-0.018l-0.152,-0.017l-0.155,-0.015l-0.053,-0.008l-0.051,-0.014l-0.05,-0.02l-0.046,-0.025l-0.044,-0.031l-0.04,-0.035l-0.036,-0.039l-0.031,-0.043l-0.026,-0.047l-0.02,-0.049l-0.015,-0.051l-0.009,-0.053l-0.003,-0.053l0.003,-0.053l0.009,-0.053l0.015,-0.051l2.403,-6.715l0.019,-0.047l0.025,-0.045l0.03,-0.042l0.034,-0.038l0.037,-0.034l0.042,-0.03l0.044,-0.026l0.047,-0.02l0.049,-0.015l0.05,-0.01l0.051,-0.004l0.051,0.001Zm-2.44,7.183l0.158,0.016l0.159,0.017l0.157,0.019l0.157,0.022l0.156,0.024l0.155,0.026l0.155,0.028l0.154,0.03l0.153,0.032l0.153,0.034l0.152,0.036l0.151,0.038l0.15,0.04l0.149,0.042l0.149,0.044l0.148,0.046l0.146,0.047l0.146,0.05l0.145,0.052l0.145,0.053l0.143,0.056l0.142,0.057l0.142,0.059l0.14,0.061l0.14,0.063l0.138,0.064l0.138,0.066l0.136,0.068l0.136,0.07l0.134,0.072l0.133,0.073l0.133,0.075l0.131,0.076l0.13,0.078l0.129,0.08l0.128,0.082l0.126,0.083l0.126,0.085l0.124,0.086l0.123,0.088l0.122,0.09l0.121,0.091l0.119,0.093l0.118,0.094l0.117,0.096l0.116,0.097l0.114,0.098l0.113,0.101l0.112,0.101l0.11,0.103l0.109,0.105l0.108,0.105l0.106,0.108l0.105,0.108l0.103,0.11l0.102,0.112l0.101,0.112l0.099,0.114l0.098,0.115l0.096,0.117l0.094,0.118l0.093,0.119l0.092,0.12l0.09,0.122l7.326,-1.334l-0.059,-0.121l-0.061,-0.12l-0.061,-0.12l-0.062,-0.119l-0.063,-0.119l-0.064,-0.118l-0.064,-0.117l-0.066,-0.117l-0.066,-0.117l-0.067,-0.116l-0.068,-0.116l-0.069,-0.115l-0.07,-0.114l-0.07,-0.114l-0.071,-0.114l-0.072,-0.112l-0.073,-0.113l-0.073,-0.111l-0.074,-0.111l-0.076,-0.111l-0.075,-0.11l-0.077,-0.11l-0.077,-0.108l-0.078,-0.109l-0.079,-0.107l-0.08,-0.107l-0.08,-0.107l-0.082,-0.106l-0.082,-0.105l-0.082,-0.105l-0.084,-0.104l-0.084,-0.103l-0.085,-0.103l-0.085,-0.102l-0.086,-0.102l-0.087,-0.101l-0.088,-0.1l-0.089,-0.1l-0.089,-0.099l-0.089,-0.099l-0.091,-0.097l-0.091,-0.097l-0.092,-0.097l-0.093,-0.096l-0.093,-0.095l-0.094,-0.094l-0.095,-0.094l-0.095,-0.093l-0.096,-0.093l-0.096,-0.091l-0.098,-0.091l-0.098,-0.091l-0.098,-0.089l-0.099,-0.089l-0.1,-0.088l-0.101,-0.088l-0.101,-0.087l-0.102,-0.086l-0.102,-0.085l-0.103,-0.085l-0.104,-0.084l-0.104,-0.083l-0.105,-0.083l-0.105,-0.081l-0.106,-0.081l-0.107,-0.08l-0.107,-0.08l-0.108,-0.079l-0.108,-0.078l-0.109,-0.077l-0.11,-0.076l-0.11,-0.076l-0.111,-0.075l-0.111,-0.074l-0.112,-0.073l-0.112,-0.073l-0.113,-0.071l-0.114,-0.071l-0.114,-0.071l-0.115,-0.069l-0.115,-0.068l-0.115,-0.068l-0.117,-0.067l-0.116,-0.066l-0.118,-0.065l-0.117,-0.065l-0.119,-0.063l-0.118,-0.063l-0.12,-0.062l-0.12,-0.061l-0.12,-0.06l-0.121,-0.06l-0.121,-0.058l-0.122,-0.058l-0.122,-0.057l-0.123,-0.056l-0.123,-0.055l-0.124,-0.054l-0.124,-0.053l-0.125,-0.053l-0.125,-0.051l-0.125,-0.051l-0.126,-0.05l-0.127,-0.048l-0.127,-0.048l-0.127,-0.047l-0.128,-0.047l-0.128,-0.045l-0.129,-0.044l-0.129,-0.044l-0.129,-0.042l-0.13,-0.042l-0.13,-0.04l-0.131,-0.04l-0.131,-0.039l-0.132,-0.037l-0.132,-0.037l-0.132,-0.036l-0.133,-0.035l-0.133,-0.034l-0.133,-0.033l-0.134,-0.032l-0.134,-0.031l-0.135,-0.03l-0.135,-0.029l-0.135,-0.028l-0.136,-0.027l-0.136,-0.026l-2.402,6.715Z"/><path d="M5.977,7.789c3.394,-3.941 8.419,-6.439 14.023,-6.439c0.433,0 0.863,0.015 1.288,0.045l-2.507,7.008c-3.381,0.357 -6.328,2.18 -8.192,4.821l-4.612,-5.435Z" style="fill:#d70016;"/><path d="M20.166,0.882l0.166,0.003l0.166,0.003l0.165,0.005l0.165,0.007l0.164,0.007l0.165,0.01l0.161,0.01l0.051,0.006l0.05,0.012l0.048,0.016l0.046,0.022l0.043,0.027l0.04,0.032l0.037,0.035l0.032,0.039l0.028,0.043l0.024,0.045l0.018,0.048l0.013,0.049l0.007,0.051l0.002,0.051l-0.004,0.051l-0.009,0.05l-0.014,0.049l-2.507,7.008l-0.021,0.048l-0.025,0.046l-0.031,0.042l-0.035,0.039l-0.039,0.035l-0.043,0.03l-0.045,0.025l-0.049,0.02l-0.05,0.014l-0.051,0.009l-0.155,0.018l-0.152,0.019l-0.15,0.021l-0.15,0.023l-0.149,0.025l-0.148,0.027l-0.148,0.029l-0.147,0.031l-0.146,0.033l-0.146,0.035l-0.145,0.037l-0.144,0.039l-0.143,0.041l-0.143,0.042l-0.141,0.045l-0.141,0.046l-0.14,0.048l-0.139,0.05l-0.138,0.052l-0.138,0.053l-0.136,0.055l-0.136,0.057l-0.135,0.059l-0.133,0.061l-0.133,0.062l-0.132,0.064l-0.131,0.065l-0.13,0.068l-0.129,0.069l-0.127,0.07l-0.127,0.073l-0.126,0.074l-0.125,0.075l-0.123,0.077l-0.123,0.079l-0.121,0.08l-0.121,0.082l-0.119,0.083l-0.118,0.085l-0.117,0.086l-0.115,0.088l-0.115,0.089l-0.113,0.091l-0.112,0.092l-0.111,0.094l-0.109,0.095l-0.109,0.097l-0.107,0.098l-0.105,0.099l-0.105,0.1l-0.103,0.102l-0.102,0.104l-0.1,0.104l-0.099,0.106l-0.098,0.107l-0.096,0.109l-0.095,0.11l-0.093,0.111l-0.092,0.112l-0.091,0.113l-0.089,0.115l-0.087,0.116l-0.087,0.117l-0.086,0.121l-0.033,0.041l-0.038,0.038l-0.042,0.032l-0.045,0.028l-0.048,0.023l-0.051,0.017l-0.052,0.011l-0.053,0.005l-0.053,0l-0.053,-0.007l-0.051,-0.013l-0.05,-0.019l-0.048,-0.024l-0.044,-0.029l-0.041,-0.034l-0.037,-0.039l-4.612,-5.435l-0.031,-0.04l-0.026,-0.044l-0.021,-0.047l-0.016,-0.048l-0.011,-0.05l-0.005,-0.051l0,-0.051l0.006,-0.051l0.011,-0.05l0.017,-0.048l0.022,-0.046l0.026,-0.044l0.032,-0.04l0.08,-0.093l0.083,-0.094l0.083,-0.094l0.084,-0.092l0.084,-0.093l0.085,-0.091l0.085,-0.091l0.086,-0.091l0.087,-0.09l0.087,-0.089l0.088,-0.089l0.088,-0.088l0.089,-0.088l0.09,-0.087l0.09,-0.087l0.091,-0.086l0.091,-0.085l0.092,-0.085l0.092,-0.084l0.093,-0.083l0.093,-0.083l0.094,-0.083l0.095,-0.081l0.095,-0.081l0.096,-0.081l0.096,-0.08l0.096,-0.079l0.098,-0.079l0.097,-0.078l0.099,-0.077l0.098,-0.077l0.1,-0.076l0.1,-0.075l0.1,-0.075l0.101,-0.074l0.101,-0.074l0.102,-0.073l0.102,-0.072l0.103,-0.071l0.103,-0.071l0.104,-0.07l0.105,-0.07l0.104,-0.069l0.106,-0.068l0.105,-0.068l0.107,-0.066l0.106,-0.067l0.108,-0.065l0.107,-0.065l0.108,-0.064l0.109,-0.063l0.109,-0.063l0.109,-0.062l0.11,-0.061l0.111,-0.061l0.11,-0.06l0.112,-0.059l0.111,-0.058l0.112,-0.058l0.113,-0.057l0.113,-0.056l0.113,-0.056l0.114,-0.055l0.114,-0.054l0.115,-0.053l0.115,-0.053l0.116,-0.051l0.116,-0.051l0.116,-0.051l0.117,-0.049l0.117,-0.049l0.117,-0.048l0.118,-0.048l0.118,-0.046l0.119,-0.046l0.119,-0.045l0.119,-0.044l0.12,-0.043l0.12,-0.043l0.121,-0.042l0.121,-0.041l0.121,-0.04l0.122,-0.04l0.122,-0.038l0.122,-0.038l0.123,-0.037l0.123,-0.037l0.123,-0.035l0.124,-0.035l0.124,-0.033l0.124,-0.033l0.125,-0.033l0.125,-0.031l0.125,-0.031l0.126,-0.029l0.126,-0.029l0.126,-0.028l0.127,-0.027l0.127,-0.027l0.127,-0.025l0.128,-0.025l0.127,-0.023l0.129,-0.023l0.128,-0.022l0.129,-0.022l0.129,-0.02l0.129,-0.019l0.13,-0.019l0.129,-0.018l0.131,-0.016l0.13,-0.016l0.131,-0.015l0.131,-0.015l0.131,-0.013l0.131,-0.012l0.132,-0.012l0.132,-0.01l0.132,-0.01l0.133,-0.009l0.132,-0.008l0.133,-0.006l0.133,-0.007l0.134,-0.005l0.133,-0.004l0.134,-0.003l0.134,-0.002l0.134,-0.002l0.135,0l0.166,0Zm-0.297,0.469l-0.131,0.001l-0.131,0.003l-0.131,0.003l-0.13,0.004l-0.13,0.005l-0.13,0.006l-0.13,0.006l-0.129,0.008l-0.129,0.009l-0.129,0.009l-0.129,0.01l-0.128,0.012l-0.129,0.012l-0.128,0.013l-0.127,0.013l-0.128,0.015l-0.127,0.016l-0.127,0.016l-0.127,0.017l-0.126,0.018l-0.126,0.019l-0.126,0.02l-0.125,0.021l-0.126,0.021l-0.125,0.023l-0.124,0.023l-0.125,0.024l-0.124,0.025l-0.123,0.025l-0.124,0.027l-0.123,0.027l-0.123,0.028l-0.123,0.029l-0.122,0.03l-0.122,0.031l-0.121,0.031l-0.122,0.032l-0.121,0.033l-0.12,0.034l-0.12,0.035l-0.12,0.035l-0.12,0.036l-0.119,0.037l-0.119,0.038l-0.119,0.038l-0.118,0.039l-0.118,0.04l-0.117,0.041l-0.118,0.042l-0.116,0.042l-0.117,0.043l-0.116,0.044l-0.116,0.045l-0.115,0.045l-0.115,0.046l-0.114,0.047l-0.115,0.048l-0.113,0.048l-0.114,0.049l-0.113,0.05l-0.112,0.05l-0.113,0.052l-0.111,0.052l-0.112,0.052l-0.111,0.054l-0.11,0.054l-0.111,0.055l-0.109,0.055l-0.11,0.057l-0.109,0.057l-0.108,0.057l-0.108,0.059l-0.108,0.059l-0.107,0.06l-0.107,0.06l-0.106,0.061l-0.106,0.062l-0.105,0.063l-0.105,0.063l-0.105,0.064l-0.104,0.064l-0.104,0.065l-0.103,0.066l-0.102,0.067l-0.103,0.067l-0.101,0.068l-0.102,0.068l-0.1,0.069l-0.101,0.07l-0.1,0.071l-0.099,0.071l-0.099,0.071l-0.098,0.073l-0.098,0.073l-0.097,0.073l-0.097,0.074l-0.097,0.075l-0.096,0.076l-0.095,0.076l-0.095,0.077l-0.094,0.077l-0.094,0.078l-0.093,0.078l-0.093,0.079l-0.092,0.08l-0.092,0.08l-0.091,0.081l-0.091,0.082l-0.09,0.082l-0.089,0.083l-0.089,0.083l-0.089,0.084l-0.087,0.084l-0.088,0.085l-0.087,0.085l-0.086,0.087l-0.085,0.086l-0.086,0.087l-0.084,0.088l-0.084,0.089l-0.083,0.088l-0.083,0.09l-0.082,0.09l-0.082,0.09l-0.081,0.091l-0.08,0.092l-0.08,0.092l4.612,5.435l0.088,-0.123l0.09,-0.122l0.091,-0.121l0.093,-0.119l0.094,-0.119l0.096,-0.117l0.097,-0.115l0.099,-0.115l0.101,-0.113l0.101,-0.112l0.104,-0.11l0.104,-0.109l0.106,-0.108l0.108,-0.106l0.109,-0.105l0.11,-0.103l0.111,-0.102l0.113,-0.101l0.114,-0.099l0.116,-0.098l0.117,-0.096l0.118,-0.094l0.119,-0.093l0.12,-0.092l0.122,-0.09l0.123,-0.088l0.124,-0.087l0.126,-0.085l0.126,-0.084l0.128,-0.082l0.129,-0.08l0.13,-0.079l0.131,-0.077l0.132,-0.075l0.133,-0.074l0.135,-0.072l0.135,-0.07l0.137,-0.069l0.137,-0.066l0.139,-0.065l0.139,-0.063l0.14,-0.061l0.142,-0.06l0.142,-0.058l0.143,-0.055l0.145,-0.054l0.145,-0.052l0.146,-0.05l0.147,-0.049l0.147,-0.046l0.149,-0.044l0.149,-0.043l0.15,-0.04l0.151,-0.039l0.152,-0.036l0.153,-0.035l0.153,-0.032l0.154,-0.03l0.155,-0.029l0.155,-0.026l0.157,-0.024l0.156,-0.022l0.158,-0.02l0.158,-0.018l2.507,-7.008l-0.16,-0.011l-0.16,-0.009l-0.16,-0.007l-0.161,-0.006l-0.161,-0.005l-0.162,-0.004l-0.162,-0.002l-0.162,-0.001l-0.131,0.001Z"/></g></svg>