<?xml version="1.0" encoding="UTF-8" standalone="no"?><!DOCTYPE svg PUBLIC "-//W3C//DTD SVG 1.1//EN" "http://www.w3.org/Graphics/SVG/1.1/DTD/svg11.dtd"><svg width="100%" height="100%" viewBox="0 0 40 40" version="1.1" xmlns="http://www.w3.org/2000/svg" xmlns:xlink="http://www.w3.org/1999/xlink" xml:space="preserve" xmlns:serif="http://www.serif.com/" style="fill-rule:evenodd;clip-rule:evenodd;stroke-linecap:round;stroke-linejoin:round;stroke-miterlimit:1.5;"><g><path d="M19.272,14.919l4.558,-12.499c5.36,1.181 9.825,4.76 12.21,9.553l-16.768,2.946Z" style="fill:#f07d0a;stroke:#000;stroke-width:0.4px;"/><path d="M24.014,16.868l13.074,-2.297c0.534,1.7 0.822,3.509 0.822,5.384c0,3.668 -1.102,7.08 -2.993,9.924l-10.903,-13.011Z" style="fill:#e8db21;stroke:#000;stroke-width:0.4px;"/><path d="M24.697,21.949l8.493,10.134c-3.283,3.581 -7.999,5.827 -13.235,5.827c-0.358,0 -0.714,-0.01 -1.067,-0.031l5.809,-15.93Z" style="fill:#07aa48;stroke:#000;stroke-width:0.4px;"/><path d="M20.639,25.081l-4.528,12.416c-5.343,-1.168 -9.8,-4.717 -12.2,-9.477l16.728,-2.939Z" style="fill:#0d4580;stroke:#000;stroke-width:0.4px;"/><path d="M4.96,10.082l10.936,13.05l-13.046,2.292c-0.552,-1.724 -0.85,-3.562 -0.85,-5.469c0,-3.646 1.089,-7.04 2.96,-9.873Z" style="fill:#b7157f;stroke:#000;stroke-width:0.4px;"/><path d="M6.681,7.87c3.285,-3.606 8.017,-5.87 13.274,-5.87c0.369,0 0.736,0.011 1.1,0.033l-5.842,16.018l-8.532,-10.181Z" style="fill:#d83118;stroke:#000;stroke-width:0.4px;"/></g></svg>